<mxfile host="65bd71144e" modified="2021-01-23T13:03:46.224Z" agent="5.0 (Macintosh; Intel Mac OS X 10_15_5) AppleWebKit/537.36 (KHTML, like Gecko) Code/1.52.1 Chrome/83.0.4103.122 Electron/9.3.5 Safari/537.36" etag="urdxrfpK36lGFC1FCMfA" version="13.10.0" type="embed">
    <diagram id="Y6TzBL9Qwo8-1orCMSIn" name="Page-1">
        <mxGraphModel dx="878" dy="547" grid="1" gridSize="10" guides="1" tooltips="1" connect="1" arrows="1" fold="1" page="1" pageScale="1" pageWidth="850" pageHeight="1100" math="0" shadow="0">
            <root>
                <mxCell id="0"/>
                <mxCell id="1" parent="0"/>
                <mxCell id="7" value="Coffee" style="shape=umlLifeline;perimeter=lifelinePerimeter;whiteSpace=wrap;html=1;container=1;collapsible=0;recursiveResize=0;outlineConnect=0;" vertex="1" parent="1">
                    <mxGeometry x="40" y="20" width="100" height="500" as="geometry"/>
                </mxCell>
                <mxCell id="15" value="" style="html=1;points=[];perimeter=orthogonalPerimeter;" vertex="1" parent="7">
                    <mxGeometry x="45" y="60" width="10" height="400" as="geometry"/>
                </mxCell>
                <mxCell id="8" value="Farmer" style="shape=umlLifeline;perimeter=lifelinePerimeter;whiteSpace=wrap;html=1;container=1;collapsible=0;recursiveResize=0;outlineConnect=0;" vertex="1" parent="1">
                    <mxGeometry x="200" y="20" width="100" height="500" as="geometry"/>
                </mxCell>
                <mxCell id="20" value="" style="html=1;points=[];perimeter=orthogonalPerimeter;" vertex="1" parent="8">
                    <mxGeometry x="45" y="70" width="10" height="210" as="geometry"/>
                </mxCell>
                <mxCell id="9" value="Distributor" style="shape=umlLifeline;perimeter=lifelinePerimeter;whiteSpace=wrap;html=1;container=1;collapsible=0;recursiveResize=0;outlineConnect=0;" vertex="1" parent="1">
                    <mxGeometry x="360" y="20" width="100" height="500" as="geometry"/>
                </mxCell>
                <mxCell id="24" value="" style="html=1;points=[];perimeter=orthogonalPerimeter;" vertex="1" parent="9">
                    <mxGeometry x="45" y="190" width="10" height="150" as="geometry"/>
                </mxCell>
                <mxCell id="10" value="Retailer" style="shape=umlLifeline;perimeter=lifelinePerimeter;whiteSpace=wrap;html=1;container=1;collapsible=0;recursiveResize=0;outlineConnect=0;" vertex="1" parent="1">
                    <mxGeometry x="520" y="20" width="100" height="500" as="geometry"/>
                </mxCell>
                <mxCell id="26" value="" style="html=1;points=[];perimeter=orthogonalPerimeter;" vertex="1" parent="10">
                    <mxGeometry x="45" y="189" width="10" height="211" as="geometry"/>
                </mxCell>
                <mxCell id="11" value="Consumer" style="shape=umlLifeline;perimeter=lifelinePerimeter;whiteSpace=wrap;html=1;container=1;collapsible=0;recursiveResize=0;outlineConnect=0;" vertex="1" parent="1">
                    <mxGeometry x="680" y="20" width="100" height="500" as="geometry"/>
                </mxCell>
                <mxCell id="16" value="harvestItem()" style="html=1;verticalAlign=bottom;startArrow=none;endArrow=block;startSize=8;startFill=0;" edge="1" parent="1">
                    <mxGeometry relative="1" as="geometry">
                        <mxPoint x="246" y="110" as="sourcePoint"/>
                        <mxPoint x="95" y="110" as="targetPoint"/>
                    </mxGeometry>
                </mxCell>
                <mxCell id="17" value="processItem()" style="html=1;verticalAlign=bottom;startArrow=none;endArrow=block;startSize=8;startFill=0;" edge="1" parent="1" source="20">
                    <mxGeometry relative="1" as="geometry">
                        <mxPoint x="249" y="138" as="sourcePoint"/>
                        <mxPoint x="94" y="138" as="targetPoint"/>
                    </mxGeometry>
                </mxCell>
                <mxCell id="18" value="packItem()" style="html=1;verticalAlign=bottom;startArrow=none;endArrow=block;startSize=8;startFill=0;" edge="1" parent="1" source="20">
                    <mxGeometry relative="1" as="geometry">
                        <mxPoint x="240" y="166" as="sourcePoint"/>
                        <mxPoint x="94" y="166" as="targetPoint"/>
                    </mxGeometry>
                </mxCell>
                <mxCell id="19" value="sellItem()" style="html=1;verticalAlign=bottom;startArrow=none;endArrow=block;startSize=8;startFill=0;" edge="1" parent="1" source="20">
                    <mxGeometry relative="1" as="geometry">
                        <mxPoint x="241" y="196" as="sourcePoint"/>
                        <mxPoint x="93" y="196" as="targetPoint"/>
                    </mxGeometry>
                </mxCell>
                <mxCell id="21" value="buyItem()" style="html=1;verticalAlign=bottom;startArrow=none;endArrow=block;startSize=8;startFill=0;" edge="1" target="20" parent="1" source="24">
                    <mxGeometry relative="1" as="geometry">
                        <mxPoint x="190" y="220" as="sourcePoint"/>
                        <Array as="points">
                            <mxPoint x="350" y="250"/>
                        </Array>
                    </mxGeometry>
                </mxCell>
                <mxCell id="27" value="shipItem()" style="html=1;verticalAlign=bottom;startArrow=none;startFill=0;endArrow=block;startSize=8;" edge="1" parent="1">
                    <mxGeometry width="60" relative="1" as="geometry">
                        <mxPoint x="415" y="265" as="sourcePoint"/>
                        <mxPoint x="565" y="265" as="targetPoint"/>
                    </mxGeometry>
                </mxCell>
                <mxCell id="28" value="receiveItem()" style="html=1;verticalAlign=bottom;startArrow=none;startFill=0;endArrow=block;startSize=8;" edge="1" parent="1">
                    <mxGeometry width="60" relative="1" as="geometry">
                        <mxPoint x="565" y="295" as="sourcePoint"/>
                        <mxPoint x="415" y="295" as="targetPoint"/>
                    </mxGeometry>
                </mxCell>
                <mxCell id="29" value="" style="html=1;points=[];perimeter=orthogonalPerimeter;" vertex="1" parent="1">
                    <mxGeometry x="725" y="340" width="10" height="140" as="geometry"/>
                </mxCell>
                <mxCell id="30" value="purchaseItem()" style="html=1;verticalAlign=bottom;startArrow=none;startFill=0;endArrow=block;startSize=8;" edge="1" parent="1">
                    <mxGeometry width="60" relative="1" as="geometry">
                        <mxPoint x="724" y="384.5" as="sourcePoint"/>
                        <mxPoint x="574" y="384.5" as="targetPoint"/>
                    </mxGeometry>
                </mxCell>
                <mxCell id="31" value="fetchItemBufferOne()" style="html=1;verticalAlign=bottom;startArrow=none;startFill=0;endArrow=block;startSize=8;" edge="1" parent="1" source="15">
                    <mxGeometry x="0.7201" width="60" relative="1" as="geometry">
                        <mxPoint x="100" y="445" as="sourcePoint"/>
                        <mxPoint x="727" y="445" as="targetPoint"/>
                        <mxPoint as="offset"/>
                    </mxGeometry>
                </mxCell>
                <mxCell id="32" value="fetchItemBufferTwo()" style="html=1;verticalAlign=bottom;startArrow=none;startFill=0;endArrow=block;startSize=8;" edge="1" parent="1" source="15">
                    <mxGeometry x="0.7201" width="60" relative="1" as="geometry">
                        <mxPoint x="100" y="468" as="sourcePoint"/>
                        <mxPoint x="728" y="468" as="targetPoint"/>
                        <mxPoint as="offset"/>
                    </mxGeometry>
                </mxCell>
            </root>
        </mxGraphModel>
    </diagram>
</mxfile>